#N canvas 465 114 587 556 10;
#X msg 277 8 load test.lua;
#X msg 359 41 start;
#X obj 87 275 r bd;
#X obj 91 312 print frombd;
#X msg 378 116 pause;
#X msg 373 95 resume;
#X msg 366 61 stop;
#X msg -7 94 call paul.player.stop;
#X msg 135 95 call test bla;
#X obj 301 149 lscore;
#X text 26 202 See documentation for a reference for these methods;
#X obj 314 229 r display;
#X obj 319 302 vsl 15 128 -1 1 0 0 empty empty empty 0 -9 0 10 #fcfcfc #000000 #000000 0 1;
#X obj 301 176 print realdone;
#X text -9 76 call a specific top-level function \, periods work;
#X obj 208 315 bng 15 250 50 0 empty empty empty 17 7 0 10 #fcfcfc #000000 #000000;
#X text 170 7 First load files;
#X text 401 39 start score;
#X text 409 62 stop;
#X connect 0 0 9 0;
#X connect 1 0 9 0;
#X connect 2 0 3 0;
#X connect 2 0 15 0;
#X connect 4 0 9 0;
#X connect 5 0 9 0;
#X connect 6 0 9 0;
#X connect 7 0 9 0;
#X connect 8 0 9 0;
#X connect 9 0 13 0;
#X connect 11 0 12 0;
