#N canvas -41 384 450 300 12;
#X declare -stdpath lscore;
#X obj 132 38 declare -stdpath lscore;
#X obj 171 168 lscore;
#X msg 164 115 start;
#X symbolatom 214 79 15 0 0 0 - - -;
#X msg 215 111 load \$1.lua;
#X obj 217 61 bng 15 250 50 0 empty empty empty 17 7 0 10 -262144 -1
-1;
#X obj 219 244 noteout 1;
#X obj 313 251 print;
#X obj 219 219 r midio;
#X msg 120 112 stop;
#X obj 315 225 spigot;
#X obj 380 173 tgl 15 0 empty empty empty 17 7 0 10 -262144 -1 -1 0
1;
#X connect 2 0 1 0;
#X connect 3 0 4 0;
#X connect 4 0 1 0;
#X connect 5 0 3 0;
#X connect 8 0 6 0;
#X connect 8 0 10 0;
#X connect 9 0 1 0;
#X connect 10 0 7 0;
#X connect 11 0 10 1;
